<svg width="56" height="42" viewBox="0 0 56 42" fill="none" xmlns="http://www.w3.org/2000/svg">
<path d="M38.4399 30.5H5.43994L10.4399 2.5H43.4399L38.4399 30.5Z" stroke="#3A4651" stroke-width="5" stroke-linecap="round" stroke-linejoin="round"/>
<path d="M50.4399 30.5H38.4399L41.4399 13.5H46.9399C47.9316 13.4945 48.9105 13.7244 49.7961 14.1707C50.6817 14.617 51.4489 15.267 52.0345 16.0674C52.6201 16.8677 53.0075 17.7956 53.1649 18.7747C53.3223 19.7539 53.2452 20.7564 52.9399 21.7L50.4399 30.5Z" stroke="#3A4651" stroke-width="5" stroke-linecap="round" stroke-linejoin="round"/>
<path d="M14.8499 39.35C16.181 39.35 17.2599 38.271 17.2599 36.94C17.2599 35.609 16.181 34.53 14.8499 34.53C13.5189 34.53 12.4399 35.609 12.4399 36.94C12.4399 38.271 13.5189 39.35 14.8499 39.35Z" stroke="#3A4651" stroke-width="5" stroke-linecap="round" stroke-linejoin="round"/>
<path d="M35.5399 39.35C36.8709 39.35 37.9499 38.271 37.9499 36.94C37.9499 35.609 36.8709 34.53 35.5399 34.53C34.2089 34.53 33.1299 35.609 33.1299 36.94C33.1299 38.271 34.2089 39.35 35.5399 39.35Z" stroke="#3A4651" stroke-width="5" stroke-linecap="round" stroke-linejoin="round"/>
<path d="M3.43994 13.5H18.4399" stroke="#3A4651" stroke-width="5" stroke-linecap="round" stroke-linejoin="round"/>
</svg>
